<svg width="18" height="20" viewBox="0 0 18 20" fill="none" xmlns="http://www.w3.org/2000/svg">
<path fill-rule="evenodd" clip-rule="evenodd" d="M13.5 0.716928V1.7174C13.9661 1.76334 14.427 1.85639 14.8767 1.99573V1.98861C14.9026 2.0004 14.9225 2.00741 14.9565 2.01944L14.9624 2.02154C14.9782 2.02713 14.993 2.03271 15.0075 2.03823C15.0278 2.0459 15.0477 2.05345 15.0697 2.0607C15.1645 2.09182 15.2532 2.1285 15.3445 2.16623L15.3605 2.17284C15.4026 2.18763 15.4422 2.20598 15.478 2.22251L15.5114 2.23781C15.5869 2.27074 15.6641 2.3099 15.7259 2.34283C15.767 2.36418 15.8071 2.38702 15.8447 2.40845L15.8447 2.40849L15.8448 2.40851L15.8448 2.40853C15.8652 2.42013 15.8848 2.43131 15.9034 2.44162C15.9342 2.45859 15.9609 2.47675 15.9866 2.49422L15.9866 2.49423C16.0054 2.50698 16.0236 2.51935 16.0424 2.53062C16.3015 2.69794 16.5434 2.89374 16.7621 3.11356L16.7698 3.12691C16.8504 3.2079 16.9268 3.29334 16.998 3.38323L17.004 3.39569C17.7048 4.36489 18.0548 5.55926 17.993 6.76876V7.15591H18V14.9102C18 18.2916 16.1116 20 12.3691 20H5.62232C1.88841 20 0 18.2916 0 14.9102V7.15591L0.00676782 7.15591V6.77232C-0.0541357 5.56282 0.297561 4.36934 0.999237 3.40103L1.0121 3.38857C1.05575 3.33491 1.10176 3.28264 1.14886 3.22914C1.17675 3.19746 1.20502 3.16535 1.23342 3.13225L1.24628 3.1189C1.46245 2.8973 1.70177 2.70239 1.95997 2.53596C1.97886 2.52467 1.99691 2.513 2.01475 2.50147C2.04471 2.48211 2.07407 2.46314 2.10579 2.44696L2.27735 2.34817C2.31209 2.33171 2.34832 2.31369 2.38456 2.29567L2.38458 2.29566L2.38459 2.29565C2.42083 2.27763 2.45707 2.25961 2.4918 2.24315C2.5171 2.23336 2.5424 2.22202 2.5677 2.21067L2.56771 2.21067L2.56772 2.21067L2.56772 2.21067C2.59302 2.19932 2.61833 2.18797 2.64363 2.17818C2.73885 2.13813 2.84007 2.09897 2.94129 2.06604C2.9756 2.04913 3.01163 2.03578 3.04851 2.02688C3.06361 2.0193 3.07898 2.01402 3.09526 2.00842L3.09527 2.00842C3.10766 2.00416 3.12058 1.99972 3.13429 1.99395V1.99929C3.57985 1.86095 4.0374 1.76741 4.5 1.72187V0.728346C4.5 0.32954 4.82169 0.00708167 5.21955 0.00708167C5.61741 0.00708167 5.94 0.32954 5.94 0.728346V3.87209C5.94 4.27089 5.61741 4.59425 5.21955 4.59425C4.82169 4.59425 4.5 4.27089 4.5 3.87209V3.14528C4.02767 3.19258 3.56388 3.3101 3.124 3.49626C1.92909 4.03382 1.39211 5.08312 1.39211 6.76876V7.15591L16.6085 7.15591V6.75897C16.6377 6.0452 16.4945 5.33499 16.1908 4.6933C15.8991 4.14418 15.4325 3.71787 14.8689 3.48647C14.4325 3.2986 13.971 3.1798 13.5 3.13414V3.86846C13.5 4.26555 13.1778 4.58717 12.78 4.58717C12.3822 4.58717 12.06 4.26555 12.06 3.86846V3.08152H5.947V1.65131H12.06V0.724115C12.0564 0.327029 12.3768 0.00271211 12.7746 1.69568e-05C13.1724 -0.0026782 13.4973 0.316248 13.5 0.713334V0.716928ZM4.88412 12.3166C4.42918 12.3166 4.06009 11.9359 4.06009 11.4668C4.06009 10.9976 4.42918 10.6081 4.88412 10.6081H4.8927C5.33906 10.6081 5.70815 10.9888 5.70815 11.4579C5.71674 11.9271 5.34764 12.3166 4.88412 12.3166ZM9.00429 12.3166C8.54936 12.3166 8.17167 11.9359 8.17167 11.4668C8.17167 10.9976 8.54077 10.617 8.99571 10.6081H9.00429C9.45923 10.617 9.82833 10.9976 9.82833 11.4579C9.82833 11.9359 9.45923 12.3166 9.00429 12.3166ZM12.2918 11.4668C12.2918 11.9359 12.6609 12.3166 13.1159 12.3166C13.5708 12.3166 13.9399 11.9359 13.9399 11.4668C13.9399 10.9976 13.5708 10.617 13.1159 10.617C12.6524 10.617 12.2918 10.9976 12.2918 11.4668ZM12.2833 15.096C12.2918 15.5652 12.6609 15.9458 13.1159 15.9458C13.5708 15.9458 13.9399 15.5652 13.9399 15.096C13.9399 14.6269 13.5708 14.2463 13.1159 14.2463H13.1073C12.6524 14.2463 12.2833 14.6269 12.2833 15.096ZM8.17167 15.096C8.17167 15.5652 8.54936 15.9458 9.00429 15.9458C9.45923 15.9458 9.82833 15.5652 9.82833 15.0872C9.81974 14.6269 9.45923 14.2463 9.00429 14.2374H8.99571C8.54077 14.2463 8.17167 14.6269 8.17167 15.096ZM4.06009 15.096C4.06009 15.5652 4.42918 15.9458 4.88412 15.9458C5.33906 15.9458 5.70815 15.5563 5.70815 15.0872C5.70815 14.618 5.33906 14.2374 4.88412 14.2374C4.4206 14.2374 4.0515 14.6269 4.06009 15.096Z" fill="#546996"/>
</svg>
