<svg width="20" height="20" viewBox="0 0 20 20" fill="none" xmlns="http://www.w3.org/2000/svg">
<path fill-rule="evenodd" clip-rule="evenodd" d="M4.44978 1.67796C8.40978 -0.962039 13.6888 -0.441039 17.0698 2.91796C18.9588 4.80896 20.0088 7.36796 19.9988 10.038C19.9798 14.798 16.5988 18.888 11.9288 19.809C7.24878 20.729 2.56978 18.218 0.758781 13.809C-1.06122 9.40796 0.479781 4.32796 4.44978 1.67796ZM12.2188 11.858L13.7688 6.91796C13.8098 6.80896 13.8098 6.68796 13.7688 6.57796C13.7298 6.43796 13.6288 6.31796 13.4988 6.24796C13.3698 6.18796 13.2188 6.16796 13.0798 6.21796L8.13878 7.77796C7.96878 7.82796 7.83878 7.96796 7.78978 8.13796L6.21878 13.078C6.18878 13.178 6.18878 13.288 6.21878 13.388C6.25878 13.528 6.35978 13.648 6.48978 13.718C6.62878 13.798 6.77978 13.809 6.91878 13.768L11.8598 12.208C12.0298 12.158 12.1598 12.028 12.2188 11.858Z" fill="#546996"/>
</svg>
