<svg width="29" height="27" viewBox="0 0 29 27" fill="none" xmlns="http://www.w3.org/2000/svg">
<path d="M14.5 0.583336C18.2359 0.583336 18.702 0.596252 20.1678 0.660836C21.6321 0.725419 22.629 0.941128 23.5063 1.26146C24.4138 1.58954 25.1783 2.03388 25.9428 2.75075C26.6419 3.39645 27.1829 4.17751 27.5281 5.03959C27.8678 5.86238 28.0988 6.80013 28.1675 8.17575C28.2321 9.55267 28.25 9.99054 28.25 13.5C28.25 17.0095 28.2363 17.4473 28.1675 18.8243C28.0988 20.1999 27.8678 21.1363 27.5281 21.9604C27.1839 22.823 26.6428 23.6042 25.9428 24.2493C25.2552 24.9058 24.4238 25.414 23.5063 25.7385C22.6304 26.0576 21.6321 26.2746 20.1678 26.3392C18.702 26.3999 18.2359 26.4167 14.5 26.4167C10.7641 26.4167 10.298 26.4038 8.83225 26.3392C7.36788 26.2746 6.371 26.0576 5.49375 25.7385C4.5757 25.4149 3.7441 24.9066 3.05725 24.2493C2.35793 23.6037 1.81691 22.8226 1.47188 21.9604C1.13088 21.1376 0.90125 20.1999 0.8325 18.8243C0.767875 17.4473 0.75 17.0095 0.75 13.5C0.75 9.99054 0.76375 9.55267 0.8325 8.17575C0.90125 6.79884 1.13088 5.86367 1.47188 5.03959C1.81595 4.17698 2.35711 3.39571 3.05725 2.75075C3.7443 2.09359 4.57584 1.58532 5.49375 1.26146C6.371 0.941128 7.3665 0.725419 8.83225 0.660836C10.298 0.600127 10.7641 0.583336 14.5 0.583336ZM14.5 7.04167C12.6766 7.04167 10.928 7.7221 9.63864 8.93327C8.34933 10.1444 7.625 11.7871 7.625 13.5C7.625 15.2129 8.34933 16.8556 9.63864 18.0667C10.928 19.2779 12.6766 19.9583 14.5 19.9583C16.3234 19.9583 18.072 19.2779 19.3614 18.0667C20.6507 16.8556 21.375 15.2129 21.375 13.5C21.375 11.7871 20.6507 10.1444 19.3614 8.93327C18.072 7.7221 16.3234 7.04167 14.5 7.04167ZM23.4375 6.71875C23.4375 6.29054 23.2564 5.87986 22.9341 5.57707C22.6118 5.27428 22.1746 5.10417 21.7188 5.10417C21.2629 5.10417 20.8257 5.27428 20.5034 5.57707C20.1811 5.87986 20 6.29054 20 6.71875C20 7.14697 20.1811 7.55764 20.5034 7.86044C20.8257 8.16323 21.2629 8.33334 21.7188 8.33334C22.1746 8.33334 22.6118 8.16323 22.9341 7.86044C23.2564 7.55764 23.4375 7.14697 23.4375 6.71875ZM14.5 9.625C15.594 9.625 16.6432 10.0333 17.4168 10.76C18.1904 11.4867 18.625 12.4723 18.625 13.5C18.625 14.5277 18.1904 15.5133 17.4168 16.24C16.6432 16.9667 15.594 17.375 14.5 17.375C13.406 17.375 12.3568 16.9667 11.5832 16.24C10.8096 15.5133 10.375 14.5277 10.375 13.5C10.375 12.4723 10.8096 11.4867 11.5832 10.76C12.3568 10.0333 13.406 9.625 14.5 9.625Z" fill="#454444"/>
</svg>
