<svg width="25" height="25" viewBox="0 0 25 25" fill="none" xmlns="http://www.w3.org/2000/svg">
<path d="M21.2106 20.6879H17.5462V15.2926C17.5462 14.0061 17.5187 12.3502 15.635 12.3502C13.7251 12.3502 13.4336 13.7503 13.4336 15.1983V20.6879H9.76787V9.59374H13.2879V11.105H13.336C13.8282 10.2344 15.0245 9.31345 16.812 9.31345C20.5245 9.31345 21.212 11.61 21.212 14.5977V20.6879H21.2106ZM5.62912 8.07603C5.34939 8.07637 5.07233 8.02484 4.81384 7.9244C4.55534 7.82396 4.32049 7.67657 4.12275 7.4907C3.92501 7.30482 3.76827 7.08411 3.66151 6.84122C3.55476 6.59832 3.50008 6.33802 3.50062 6.07524C3.5009 5.67978 3.626 5.29327 3.86011 4.9646C4.09421 4.63592 4.42682 4.37984 4.81585 4.22874C5.20489 4.07764 5.63289 4.03831 6.04572 4.11571C6.45856 4.19311 6.83769 4.38377 7.13517 4.66359C7.43266 4.9434 7.63513 5.2998 7.71699 5.68772C7.79886 6.07563 7.75643 6.47764 7.59508 6.8429C7.43372 7.20817 7.16069 7.52028 6.81051 7.73978C6.46033 7.95927 6.04873 8.07629 5.62775 8.07603H5.62912ZM7.46612 20.6879H3.79075V9.59374H7.4675V20.6879H7.46612ZM23.0462 0.874992H1.95237C0.940375 0.874992 0.125 1.62416 0.125 2.55028V22.4497C0.125 23.3758 0.94175 24.125 1.951 24.125H23.0408C24.05 24.125 24.875 23.3758 24.875 22.4497V2.55028C24.875 1.62416 24.05 0.874992 23.0408 0.874992H23.0449H23.0462Z" fill="#454444"/>
</svg>
