<svg width="29" height="21" viewBox="0 0 29 21" fill="none" xmlns="http://www.w3.org/2000/svg">
<g clip-path="url(#clip0)">
<path d="M9.0625 10.1691C9.0625 9.92871 9.15798 9.69821 9.32793 9.52825C9.49789 9.3583 9.7284 9.26282 9.96875 9.26282H18.125V3.37219C18.125 1.55969 16.2111 0.200317 14.5 0.200317H5.89062C5.04967 0.201217 4.24341 0.535685 3.64876 1.13033C3.05412 1.72498 2.71965 2.53123 2.71875 3.37219V16.9659C2.71965 17.8069 3.05412 18.6132 3.64876 19.2078C4.24341 19.8025 5.04967 20.1369 5.89062 20.1378H14.9531C15.7941 20.1369 16.6003 19.8025 17.195 19.2078C17.7896 18.6132 18.1241 17.8069 18.125 16.9659V11.0753H9.96875C9.7284 11.0753 9.49789 10.9798 9.32793 10.8099C9.15798 10.6399 9.0625 10.4094 9.0625 10.1691Z" fill="#546996"/>
<path d="M26.0156 9.52841L21.4844 4.99716C21.313 4.83438 21.0849 4.74497 20.8486 4.748C20.6122 4.75102 20.3865 4.84625 20.2193 5.01336C20.0522 5.18047 19.957 5.40626 19.954 5.64257C19.951 5.87889 20.0404 6.10703 20.2031 6.27837L23.187 9.26276H18.125V11.0753H23.187L20.2031 14.0597C20.1154 14.143 20.0453 14.243 19.9969 14.3538C19.9485 14.4647 19.9227 14.5841 19.9212 14.7051C19.9196 14.826 19.9423 14.9461 19.9879 15.0581C20.0334 15.1702 20.101 15.2719 20.1865 15.3575C20.2721 15.443 20.3739 15.5106 20.4859 15.5561C20.598 15.6017 20.718 15.6244 20.8389 15.6228C20.9599 15.6213 21.0793 15.5955 21.1902 15.5471C21.301 15.4987 21.401 15.4286 21.4844 15.3409L26.0156 10.8096C26.1854 10.6397 26.2808 10.4093 26.2808 10.169C26.2808 9.92876 26.1854 9.69835 26.0156 9.52841Z" fill="#546996"/>
</g>
<defs>
<clipPath id="clip0">
<rect width="29" height="20" fill="white" transform="translate(0 0.669067)"/>
</clipPath>
</defs>
</svg>
