<svg width="29" height="21" viewBox="0 0 29 21" fill="none" xmlns="http://www.w3.org/2000/svg">
<path d="M28.9986 2.49293C27.9124 2.92082 26.7606 3.20183 25.5813 3.32667C26.8244 2.66454 27.7547 1.62246 28.199 0.394634C27.0324 1.01297 25.7534 1.44632 24.4204 1.68073C23.525 0.827444 22.3381 0.261543 21.0443 0.0710009C19.7505 -0.119542 18.4223 0.0759505 17.2661 0.627085C16.1099 1.17822 15.1906 2.05412 14.651 3.11861C14.1114 4.1831 13.9818 5.37654 14.2823 6.5134C11.9166 6.40779 9.60217 5.86024 7.48942 4.9063C5.37667 3.95237 3.51279 2.61336 2.01879 0.976227C1.48996 1.7852 1.21206 2.70482 1.21355 3.64091C1.21355 5.47819 2.26349 7.10132 3.85974 8.05164C2.91509 8.02515 1.99124 7.79794 1.16518 7.38895V7.45484C1.16546 8.67847 1.64088 9.86435 2.51082 10.8114C3.38076 11.7585 4.59169 12.4085 5.93828 12.6512C5.06136 12.8628 4.14187 12.894 3.24941 12.7424C3.62908 13.7956 4.36907 14.7168 5.36579 15.3768C6.3625 16.0368 7.56602 16.4027 8.80784 16.4233C7.57363 17.2866 6.16048 17.9248 4.64916 18.3013C3.13785 18.6779 1.55802 18.7854 0 18.6179C2.71974 20.1757 5.88578 21.0027 9.11941 21C20.0641 21 26.0494 12.9249 26.0494 5.92167C26.0494 5.69359 26.0422 5.46298 26.0309 5.23744C27.1958 4.48754 28.2013 3.55857 29 2.4942L28.9986 2.49293Z" fill="#454444"/>
</svg>
