<svg width="17" height="16" viewBox="0 0 17 16" fill="none" xmlns="http://www.w3.org/2000/svg">
<path d="M8.49964 0C3.80584 0 0 3.58197 0 7.99966C0 12.4174 3.80584 16 8.49964 16C13.1934 16 17 12.4174 17 7.99966C17 3.58197 13.1934 0 8.49964 0ZM10.2691 12.3984C9.83158 12.5609 9.4833 12.6842 9.2221 12.7695C8.96161 12.8549 8.65867 12.8975 8.31399 12.8975C7.78438 12.8975 7.37206 12.7756 7.07848 12.5325C6.78489 12.2894 6.63881 11.9812 6.63881 11.6067C6.63881 11.4611 6.64961 11.3121 6.6712 11.1604C6.6935 11.0087 6.72876 10.838 6.77697 10.6463L7.32457 8.8259C7.37278 8.65117 7.41452 8.48525 7.44762 8.33084C7.48072 8.17507 7.49655 8.03217 7.49655 7.90214C7.49655 7.67052 7.44546 7.50798 7.344 7.41655C7.2411 7.32512 7.04753 7.28042 6.75898 7.28042C6.61795 7.28042 6.47259 7.30006 6.32364 7.34138C6.17613 7.38404 6.04804 7.42265 5.94298 7.46057L6.08762 6.89981C6.44597 6.76233 6.78921 6.64449 7.11661 6.54696C7.44402 6.44808 7.75344 6.39932 8.04487 6.39932C8.57088 6.39932 8.97672 6.51987 9.26239 6.75826C9.54662 6.99733 9.68982 7.30819 9.68982 7.69016C9.68982 7.7694 9.67975 7.90891 9.66032 8.10802C9.64089 8.30781 9.60419 8.48999 9.55094 8.65727L9.00622 10.4723C8.96161 10.6179 8.92203 10.7845 8.88605 10.9708C8.85079 11.157 8.83352 11.2992 8.83352 11.3947C8.83352 11.6358 8.89037 11.8004 9.0055 11.8877C9.1192 11.9751 9.31852 12.0191 9.60059 12.0191C9.73371 12.0191 9.88267 11.9968 10.051 11.9534C10.218 11.9101 10.3389 11.8715 10.4152 11.8383L10.2691 12.3984ZM10.1727 5.03128C9.91865 5.25342 9.61283 5.36449 9.2552 5.36449C8.89829 5.36449 8.59031 5.25342 8.33414 5.03128C8.07941 4.80914 7.9506 4.53892 7.9506 4.22332C7.9506 3.9084 8.08013 3.6375 8.33414 3.41333C8.59031 3.18849 8.89829 3.07674 9.2552 3.07674C9.61283 3.07674 9.91936 3.18849 10.1727 3.41333C10.4267 3.6375 10.554 3.9084 10.554 4.22332C10.554 4.5396 10.4267 4.80914 10.1727 5.03128Z" fill="white"/>
</svg>
